# xmcd CD database file
#
# Track frame offsets:
#	150
#	23714
#	42735
#	65752
#	96361
#	115948
#	136657
#	155979
#	172941
#	195030
#	216971
#	242886
#
# Disc length: 3669 seconds
#
# Revision: 1
# Processed by: cddbd v1.5.2PL0 Copyright (c) Steve Scherf et al.
# Submitted via: CDex 1.70beta2
#
DISCID=a90e530c
DTITLE=Lars Eric Mattsson - Obsession
DYEAR=1998
DGENRE=Hard Rock
TTITLE0=Caught In Your Web
TTITLE1=Alive
TTITLE2=Just A Leo
TTITLE3=Messenger
TTITLE4=Long Way Home
TTITLE5=Time And Again
TTITLE6=Sense And Obsession
TTITLE7=Mother Forgive
TTITLE8=As The Sun Meets The Sky
TTITLE9=Eyes Of A Child
TTITLE10=Lay It On The Line
TTITLE11=And The Road Goes On
EXTD=YEAR: 1998
EXTT0=
EXTT1=
EXTT2=
EXTT3=
EXTT4=
EXTT5=
EXTT6=
EXTT7=
EXTT8=
EXTT9=
EXTT10=
EXTT11=
PLAYORDER=
